<?xml version="1.0" standalone="no"?>
<!DOCTYPE svg PUBLIC "-//W3C//DTD SVG 20010904//EN"
 "http://www.w3.org/TR/2001/REC-SVG-20010904/DTD/svg10.dtd">
<svg version="1.0" xmlns="http://www.w3.org/2000/svg"
 width="448.000000pt" height="448.000000pt" viewBox="0 0 448.000000 448.000000"
 preserveAspectRatio="xMidYMid meet">
<metadata>
Created by potrace 1.11, written by Peter Selinger 2001-2013
</metadata>
<g transform="translate(0.000000,448.000000) scale(0.100000,-0.100000)"
fill="#000000" stroke="none">
<path d="M2320 4224 c-14 -2 -65 -9 -115 -15 -213 -26 -496 -121 -694 -233
-407 -231 -712 -582 -885 -1022 l-42 -107 -159 -49 c-182 -55 -344 -98 -373
-98 -27 0 -52 -32 -52 -66 0 -44 77 -115 171 -158 69 -32 244 -76 301 -76 l23
0 1 -163 c1 -321 66 -601 206 -882 97 -193 199 -335 363 -504 293 -302 664
-497 1090 -572 180 -32 484 -32 655 -1 581 106 1059 429 1367 923 280 448 365
1027 228 1546 -232 876 -1035 1491 -1935 1482 -69 -1 -136 -3 -150 -5z m1161
-414 c99 -61 184 -126 269 -205 76 -70 190 -192 190 -203 0 -24 -561 -241
-1300 -502 -616 -217 -978 -311 -1510 -391 -188 -28 -240 -32 -415 -32 -331 0
-550 47 -647 140 l-28 26 109 27 c235 60 894 274 1326 430 663 242 1634 621
1840 720 44 21 81 39 83 39 1 1 39 -21 83 -49z m550 -526 c23 -31 61 -89 85
-129 44 -76 149 -303 142 -310 -15 -15 -398 -156 -668 -246 -644 -214 -1158
-361 -1385 -395 -172 -27 -664 -27 -808 0 -116 21 -222 55 -285 92 -47 28
-112 91 -112 109 0 6 48 16 108 23 352 42 967 194 1497 370 381 127 912 332
1235 476 80 35 146 65 147 65 1 1 21 -24 44 -55z m283 -606 c30 -103 62 -316
50 -328 -14 -13 -322 -126 -546 -201 -434 -145 -703 -194 -1073 -194 -159 0
-228 4 -285 17 -118 26 -185 55 -219 94 -37 41 -38 52 -8 59 12 3 54 12 92 20
84 19 645 177 875 247 202 61 469 157 814 293 190 75 263 100 268 91 4 -7 18
-51 32 -98z"/>
</g>
</svg>
